<svg width="570" height="636" viewBox="0 0 570 636" fill="none" xmlns="http://www.w3.org/2000/svg">
<path fill-rule="evenodd" clip-rule="evenodd" d="M51.368 460.737L64.8759 476.794L74.8446 473.624L60.4414 456.506L51.368 460.737Z" fill="#DDDDDD"/>
<path fill-rule="evenodd" clip-rule="evenodd" d="M390.943 612.73L369.969 613.353L365.693 603.807L388.054 603.145L390.943 612.73Z" fill="#DDDDDD"/>
<path fill-rule="evenodd" clip-rule="evenodd" d="M390.943 612.73L400.37 617.055C403.687 618.58 407.173 619.701 410.642 620.366L414.686 621.141C423.734 622.87 432.483 627.616 438.388 634.015L380.011 635.759L369.969 613.353L390.943 612.73Z" fill="#3361FF"/>
<path fill-rule="evenodd" clip-rule="evenodd" d="M326.438 411.989L243.487 374.861L60.4044 456.483L60.6922 456.824L65.1132 462.085L79.8186 479.566L81.7111 481.814L232.701 439.164L270.44 426.61L286.228 463.123L353.547 604.139L371.025 603.662L388.094 603.157L326.438 411.989Z" fill="#19194A"/>
<path fill-rule="evenodd" clip-rule="evenodd" d="M395.584 247.452L394.502 246.661L504.601 154.67L505.683 155.461L395.584 247.452Z" fill="#19194A"/>
<path fill-rule="evenodd" clip-rule="evenodd" d="M319.075 213.222L314.33 69.8124L315.641 70.0919L320.385 213.501L319.075 213.222Z" fill="#19194A"/>
<path fill-rule="evenodd" clip-rule="evenodd" d="M350.881 327.621L349.672 326.975L397.364 253.782L398.567 254.419L350.881 327.621Z" fill="#19194A"/>
<path fill-rule="evenodd" clip-rule="evenodd" d="M348.766 326.622L350.023 327.184L427.684 153.677L426.427 153.115L348.766 326.622Z" fill="#19194A"/>
<path fill-rule="evenodd" clip-rule="evenodd" d="M289.067 299.953L311.893 215.623L313.177 216.101L290.355 300.425L289.067 299.953Z" fill="#19194A"/>
<path fill-rule="evenodd" clip-rule="evenodd" d="M289.956 300.299L291.213 300.861L368.875 127.354L367.618 126.791L289.956 300.299Z" fill="#19194A"/>
<path fill-rule="evenodd" clip-rule="evenodd" d="M312.203 205.624L238.458 79.3119L239.639 79.1563L313.375 205.465L312.203 205.624Z" fill="#19194A"/>
<path fill-rule="evenodd" clip-rule="evenodd" d="M405.82 247.527L405.158 246.547L548.479 217.393L549.15 218.377L405.82 247.527Z" fill="#19194A"/>
<path fill-rule="evenodd" clip-rule="evenodd" d="M309.693 212.535L402.352 254.009L405.475 247.033L312.816 205.559L309.693 212.535Z" fill="#19194A"/>
<path fill-rule="evenodd" clip-rule="evenodd" d="M450.422 22.4257L450.309 22.375C446.152 22.5313 441.897 22.6989 437.508 22.8836C341.427 26.8826 313.476 94.0824 308.135 110.205L393.942 148.612L450.422 22.4257Z" fill="#AE9AFF"/>
<path fill-rule="evenodd" clip-rule="evenodd" d="M562.609 200.407C588.908 141.651 538.741 62.0104 450.537 22.4746C453.19 25.6785 455.909 28.9679 458.695 32.3643C519.709 106.685 488.213 172.299 479.75 187.017L551.014 218.915C555.686 213.323 559.588 207.156 562.609 200.407Z" fill="#AE9AFF"/>
<path fill-rule="evenodd" clip-rule="evenodd" d="M437.504 22.882C441.893 22.6973 446.149 22.5296 450.305 22.3733C362.071 -17.0713 269.256 -1.42969 242.954 57.3323C239.936 64.0759 237.934 71.1 236.876 78.3093L308.14 110.207C313.481 94.0847 341.424 26.881 437.504 22.882Z" fill="black"/>
<path fill-rule="evenodd" clip-rule="evenodd" d="M458.693 32.3662C455.906 28.9699 453.188 25.6804 450.535 22.4766L450.422 22.4258L393.941 148.612L479.748 187.019C488.214 172.295 519.709 106.682 458.693 32.3662Z" fill="black"/>
<path fill-rule="evenodd" clip-rule="evenodd" d="M393.685 311.778L392.757 310.717L366.556 322.358L365.427 321.853L324.799 303.668L283.606 285.23L274.263 257.679L237.655 258.083L238.013 264.943L243.793 374.753L243.789 374.786L243.917 374.843L324.645 410.977L325.722 411.459L326.515 411.814L411.489 342.59L416.844 338.288L393.685 311.778Z" fill="#DDDDDD"/>
<path fill-rule="evenodd" clip-rule="evenodd" d="M304.607 209.401L306.983 204.092C308.002 201.817 311.74 201.273 315.327 202.879C318.923 204.488 321.007 207.638 319.989 209.913L318.805 212.559C318.025 214.302 316.528 215.689 314.473 216.583L267.499 237.087L274.267 257.678L237.659 258.082L236.279 231.793C235.989 226.25 239.854 222.045 246.431 220.763L304.607 209.401Z" fill="#FFBF9D"/>
<path fill-rule="evenodd" clip-rule="evenodd" d="M438.836 306.885L408.554 255.929L410.93 250.62C411.949 248.345 409.864 245.195 406.268 243.585C402.681 241.98 398.943 242.524 397.924 244.799L396.743 247.439C395.963 249.182 395.923 251.228 396.616 253.352L412.627 302.048L392.762 310.718L393.689 311.779L416.848 338.289L437.376 321.799C441.701 318.328 442.253 312.64 438.836 306.885Z" fill="#FFBF9D"/>
<path fill-rule="evenodd" clip-rule="evenodd" d="M243.081 361.338L336.911 403.336L343.894 397.665L242.614 352.332L243.081 361.338Z" fill="#100F39"/>
<path fill-rule="evenodd" clip-rule="evenodd" d="M280.219 325.783L337.505 351.424L340.624 344.456L283.338 318.814L280.219 325.783Z" fill="#100F39"/>
<path fill-rule="evenodd" clip-rule="evenodd" d="M319.122 344.721L323.993 346.901L328.247 337.396L323.376 335.216L319.122 344.721Z" fill="#3361FF"/>
<path fill-rule="evenodd" clip-rule="evenodd" d="M299.055 387.698L303.935 389.882L308.189 380.378L303.31 378.194L299.055 387.698Z" fill="#3361FF"/>
<path fill-rule="evenodd" clip-rule="evenodd" d="M245.371 375.607L255.826 380.287L295.908 290.736L285.453 286.057L245.371 375.607Z" fill="#3361FF"/>
<path fill-rule="evenodd" clip-rule="evenodd" d="M313.108 405.926L323.563 410.606L363.646 321.056L353.191 316.376L313.108 405.926Z" fill="#3361FF"/>
<path fill-rule="evenodd" clip-rule="evenodd" d="M344.752 330.124L359.032 336.515L360.487 333.266L346.207 326.874L344.752 330.124Z" fill="#100F39"/>
<path fill-rule="evenodd" clip-rule="evenodd" d="M277.01 299.802L291.29 306.194L292.745 302.945L278.465 296.553L277.01 299.802Z" fill="#100F39"/>
<path fill-rule="evenodd" clip-rule="evenodd" d="M335.561 304.152C337.282 300.306 341.646 298.575 345.273 300.199L345.886 298.83C341.452 296.845 336.229 298.989 334.192 303.539L333.099 305.98L334.469 306.593L335.561 304.152Z" fill="#DDDDDD"/>
<path fill-rule="evenodd" clip-rule="evenodd" d="M319.279 331.411C317.826 334.638 318.402 338.431 320.76 341.142C324.145 345.043 330.071 345.497 334.549 341.612L351.867 327.079L331.454 304.148L319.279 331.411Z" fill="#FFBF9D"/>
<path fill-rule="evenodd" clip-rule="evenodd" d="M341.825 337.276C347.37 339.757 353.75 337.559 356.077 332.361L356.642 331.099C358.968 325.9 356.357 319.677 350.813 317.195L341.825 337.276Z" fill="#19194A"/>
<path fill-rule="evenodd" clip-rule="evenodd" d="M339.234 338.168C341.222 339.648 344.252 339.725 347.094 337.665C349.938 335.608 350.569 332.533 349.594 330.67C348.012 327.648 345.478 329.533 345.478 329.533L339.234 338.168Z" fill="#FFBF9D"/>
<path fill-rule="evenodd" clip-rule="evenodd" d="M346.888 322.217L327.22 313.414C323.227 311.627 321.38 307.074 323.093 303.246C324.806 299.42 329.432 297.765 333.425 299.552L352.739 308.197C356.729 309.983 358.577 314.536 356.865 318.362L352.204 328.774L347.286 326.572L346.888 322.217Z" fill="#19194A"/>
<path fill-rule="evenodd" clip-rule="evenodd" d="M348.125 301.476C352.195 303.297 353.999 308.243 352.07 312.552L345.472 327.291L347.917 301.382L348.125 301.476ZM353.439 313.165C355.682 308.153 353.617 302.29 348.738 300.107L346.62 299.159L343.552 331.679L344.983 332.056L353.439 313.165ZM339.067 338.123L344.22 333.595L343.23 332.468L338.076 336.997C337.577 337.435 336.898 337.535 336.342 337.287L327.215 333.201L326.602 334.57L335.729 338.656C336.844 339.155 338.146 338.933 339.067 338.123C339.066 338.123 339.067 338.123 339.067 338.123Z" fill="#DDDDDD"/>
<path fill-rule="evenodd" clip-rule="evenodd" d="M52.0011 485.486L41.6299 485.39C37.9793 485.352 34.3399 485.754 30.9015 486.564L26.8937 487.509C17.9291 489.627 8.00449 488.869 3.05176e-05 485.442L52.5704 460L70.8903 476.349L52.0011 485.486Z" fill="#3361FF"/>
</svg>
