<svg width="506" height="761" viewBox="0 0 506 761" fill="none" xmlns="http://www.w3.org/2000/svg">
<g filter="url(#filter0_d_20_3909)">
<rect x="118" y="351" width="270" height="270" fill="#100F39"/>
<path d="M246 408.641V495C246 495 263.767 489.712 264.914 474.003C265.815 461.64 264.558 448.166 272.737 434.145C280.055 421.601 263.213 401.333 263.213 401.333L246 408.641Z" fill="#AE9AFF"/>
<path d="M304.739 420.267L272.737 434.146L258.867 389.306L293.177 380.765L304.739 420.267Z" fill="#DDDDDD"/>
<path d="M246 408.642V495C246 495 228.233 489.712 227.086 474.004C226.185 461.641 227.442 448.167 219.263 434.146C211.945 421.601 228.787 401.333 228.787 401.333L246 408.642Z" fill="#AE9AFF"/>
<path d="M187.261 420.267L219.263 434.146L233.132 389.306L198.823 380.765L187.261 420.267Z" fill="#DDDDDD"/>
<path fill-rule="evenodd" clip-rule="evenodd" d="M215.826 395.831L246 408.642V295H40.5054C-3.30314 295 -15.855 354.962 24.2696 372.558L185.006 443.043L215.826 395.831ZM276.174 395.831L246 408.641V295.001H451.495C495.303 295.001 507.855 354.963 467.73 372.559L306.994 443.043L276.174 395.831Z" fill="#3361FF"/>
<path d="M246.787 56.5366H339.755C355.942 56.5366 371.052 64.6549 379.993 78.1574L419.357 137.601L379.246 185.32L336.941 159.563L320 294.537H246.787" fill="#000001"/>
<path d="M246.787 56.5366H153.817C137.63 56.5366 122.52 64.6549 113.579 78.1574L74.2158 137.601L114.326 185.32L156.632 159.563L173 294.537H246.786" fill="#000001"/>
<rect x="340" y="331.537" width="182" height="55" rx="2" transform="rotate(-180 340 331.537)" fill="#100F39"/>
<rect x="320" y="295.537" width="7" height="7" rx="1" transform="rotate(-180 320 295.537)" fill="white"/>
<rect x="296" y="295.537" width="7" height="7" rx="1" transform="rotate(-180 296 295.537)" fill="white"/>
<rect x="272" y="295.537" width="7" height="7" rx="1" transform="rotate(-180 272 295.537)" fill="white"/>
<rect x="248" y="295.537" width="7" height="7" rx="1" transform="rotate(-180 248 295.537)" fill="white"/>
<rect x="312" y="295.537" width="7" height="7" rx="1" transform="rotate(-180 312 295.537)" fill="white"/>
<rect x="288" y="295.537" width="7" height="7" rx="1" transform="rotate(-180 288 295.537)" fill="white"/>
<rect x="264" y="295.537" width="7" height="7" rx="1" transform="rotate(-180 264 295.537)" fill="white"/>
<rect x="240" y="295.537" width="18" height="7" rx="1" transform="rotate(-180 240 295.537)" fill="white"/>
<rect x="304" y="295.537" width="7" height="7" rx="1" transform="rotate(-180 304 295.537)" fill="white"/>
<rect x="280" y="295.537" width="7" height="7" rx="1" transform="rotate(-180 280 295.537)" fill="white"/>
<rect x="256" y="295.537" width="7" height="7" rx="1" transform="rotate(-180 256 295.537)" fill="white"/>
<rect x="304" y="287.537" width="50" height="7" rx="1" transform="rotate(-180 304 287.537)" fill="white"/>
<rect x="323" y="303.537" width="7" height="7" rx="1" transform="rotate(-180 323 303.537)" fill="white"/>
<rect x="299" y="303.537" width="7" height="7" rx="1" transform="rotate(-180 299 303.537)" fill="white"/>
<rect x="275" y="303.537" width="7" height="7" rx="1" transform="rotate(-180 275 303.537)" fill="white"/>
<rect x="251" y="303.537" width="7" height="7" rx="1" transform="rotate(-180 251 303.537)" fill="white"/>
<rect x="315" y="303.537" width="7" height="7" rx="1" transform="rotate(-180 315 303.537)" fill="white"/>
<rect x="291" y="303.537" width="7" height="7" rx="1" transform="rotate(-180 291 303.537)" fill="white"/>
<rect x="267" y="303.537" width="7" height="7" rx="1" transform="rotate(-180 267 303.537)" fill="white"/>
<rect x="243" y="303.537" width="7" height="7" rx="1" transform="rotate(-180 243 303.537)" fill="white"/>
<rect x="307" y="303.537" width="7" height="7" rx="1" transform="rotate(-180 307 303.537)" fill="white"/>
<rect x="283" y="303.537" width="7" height="7" rx="1" transform="rotate(-180 283 303.537)" fill="white"/>
<rect x="259" y="303.537" width="7" height="7" rx="1" transform="rotate(-180 259 303.537)" fill="white"/>
<rect x="235" y="303.537" width="13" height="7" rx="1" transform="rotate(-180 235 303.537)" fill="white"/>
<rect x="325" y="311.537" width="7" height="7" rx="1" transform="rotate(-180 325 311.537)" fill="white"/>
<rect x="301" y="311.537" width="7" height="7" rx="1" transform="rotate(-180 301 311.537)" fill="white"/>
<rect x="277" y="311.537" width="7" height="7" rx="1" transform="rotate(-180 277 311.537)" fill="white"/>
<rect x="253" y="311.537" width="7" height="7" rx="1" transform="rotate(-180 253 311.537)" fill="white"/>
<rect x="317" y="311.537" width="7" height="7" rx="1" transform="rotate(-180 317 311.537)" fill="white"/>
<rect x="293" y="311.537" width="7" height="7" rx="1" transform="rotate(-180 293 311.537)" fill="white"/>
<rect x="269" y="311.537" width="7" height="7" rx="1" transform="rotate(-180 269 311.537)" fill="white"/>
<rect x="245" y="311.537" width="7" height="7" rx="1" transform="rotate(-180 245 311.537)" fill="white"/>
<rect x="309" y="311.537" width="7" height="7" rx="1" transform="rotate(-180 309 311.537)" fill="white"/>
<rect x="285" y="311.537" width="7" height="7" rx="1" transform="rotate(-180 285 311.537)" fill="white"/>
<rect x="261" y="311.537" width="7" height="7" rx="1" transform="rotate(-180 261 311.537)" fill="white"/>
<rect x="237" y="311.537" width="7" height="7" rx="1" transform="rotate(-180 237 311.537)" fill="white"/>
<rect x="229" y="311.537" width="7" height="7" rx="1" transform="rotate(-180 229 311.537)" fill="white"/>
<rect x="328" y="319.537" width="7" height="7" rx="1" transform="rotate(-180 328 319.537)" fill="white"/>
<rect x="304" y="319.537" width="7" height="7" rx="1" transform="rotate(-180 304 319.537)" fill="white"/>
<rect x="280" y="319.537" width="7" height="7" rx="1" transform="rotate(-180 280 319.537)" fill="white"/>
<rect x="256" y="319.537" width="7" height="7" rx="1" transform="rotate(-180 256 319.537)" fill="white"/>
<rect x="320" y="319.537" width="7" height="7" rx="1" transform="rotate(-180 320 319.537)" fill="white"/>
<rect x="296" y="319.537" width="7" height="7" rx="1" transform="rotate(-180 296 319.537)" fill="white"/>
<rect x="272" y="319.537" width="7" height="7" rx="1" transform="rotate(-180 272 319.537)" fill="white"/>
<rect x="248" y="319.537" width="7" height="7" rx="1" transform="rotate(-180 248 319.537)" fill="white"/>
<rect x="312" y="319.537" width="7" height="7" rx="1" transform="rotate(-180 312 319.537)" fill="white"/>
<rect x="288" y="319.537" width="7" height="7" rx="1" transform="rotate(-180 288 319.537)" fill="white"/>
<rect x="264" y="319.537" width="7" height="7" rx="1" transform="rotate(-180 264 319.537)" fill="white"/>
<rect x="240" y="319.537" width="7" height="7" rx="1" transform="rotate(-180 240 319.537)" fill="white"/>
<rect x="232" y="319.537" width="10" height="7" rx="1" transform="rotate(-180 232 319.537)" fill="white"/>
<rect x="336" y="319.537" width="7" height="7" rx="1" transform="rotate(-180 336 319.537)" fill="white"/>
<rect x="325" y="327.537" width="7" height="7" rx="1" transform="rotate(-180 325 327.537)" fill="white"/>
<rect x="301" y="327.537" width="7" height="7" rx="1" transform="rotate(-180 301 327.537)" fill="white"/>
<rect x="277" y="327.537" width="7" height="7" rx="1" transform="rotate(-180 277 327.537)" fill="white"/>
<rect x="253" y="327.537" width="7" height="7" rx="1" transform="rotate(-180 253 327.537)" fill="white"/>
<rect x="193" y="327.537" width="7" height="7" rx="1" transform="rotate(-180 193 327.537)" fill="white"/>
<rect x="193" y="319.537" width="7" height="7" rx="1" transform="rotate(-180 193 319.537)" fill="white"/>
<rect x="193" y="311.537" width="7" height="7" rx="1" transform="rotate(-180 193 311.537)" fill="white"/>
<rect x="193" y="303.537" width="7" height="7" rx="1" transform="rotate(-180 193 303.537)" fill="white"/>
<rect x="193" y="295.537" width="7" height="7" rx="1" transform="rotate(-180 193 295.537)" fill="white"/>
<rect x="317" y="327.537" width="7" height="7" rx="1" transform="rotate(-180 317 327.537)" fill="white"/>
<rect x="293" y="327.537" width="7" height="7" rx="1" transform="rotate(-180 293 327.537)" fill="white"/>
<rect x="269" y="327.537" width="7" height="7" rx="1" transform="rotate(-180 269 327.537)" fill="white"/>
<rect x="245" y="327.537" width="7" height="7" rx="1" transform="rotate(-180 245 327.537)" fill="white"/>
<rect x="185" y="327.537" width="7" height="7" rx="1" transform="rotate(-180 185 327.537)" fill="white"/>
<rect x="185" y="319.537" width="7" height="7" rx="1" transform="rotate(-180 185 319.537)" fill="white"/>
<rect x="185" y="311.537" width="7" height="7" rx="1" transform="rotate(-180 185 311.537)" fill="white"/>
<rect x="185" y="303.537" width="7" height="7" rx="1" transform="rotate(-180 185 303.537)" fill="white"/>
<rect x="185" y="295.537" width="7" height="7" rx="1" transform="rotate(-180 185 295.537)" fill="white"/>
<rect x="219" y="327.537" width="7" height="7" rx="1" transform="rotate(-180 219 327.537)" fill="white"/>
<rect x="219" y="319.537" width="7" height="7" rx="1" transform="rotate(-180 219 319.537)" fill="white"/>
<rect x="219" y="311.537" width="7" height="7" rx="1" transform="rotate(-180 219 311.537)" fill="white"/>
<rect x="219" y="287.537" width="7" height="7" rx="1" transform="rotate(-180 219 287.537)" fill="white"/>
<rect x="309" y="327.537" width="7" height="7" rx="1" transform="rotate(-180 309 327.537)" fill="white"/>
<rect x="285" y="327.537" width="7" height="7" rx="1" transform="rotate(-180 285 327.537)" fill="white"/>
<rect x="261" y="327.537" width="7" height="7" rx="1" transform="rotate(-180 261 327.537)" fill="white"/>
<rect x="237" y="327.537" width="7" height="7" rx="1" transform="rotate(-180 237 327.537)" fill="white"/>
<rect x="177" y="327.537" width="7" height="7" rx="1" transform="rotate(-180 177 327.537)" fill="white"/>
<rect x="177" y="319.537" width="7" height="7" rx="1" transform="rotate(-180 177 319.537)" fill="white"/>
<rect x="177" y="311.537" width="7" height="7" rx="1" transform="rotate(-180 177 311.537)" fill="white"/>
<rect x="177" y="303.537" width="7" height="7" rx="1" transform="rotate(-180 177 303.537)" fill="white"/>
<rect x="177" y="295.537" width="7" height="7" rx="1" transform="rotate(-180 177 295.537)" fill="white"/>
<rect x="177" y="287.537" width="7" height="7" rx="1" transform="rotate(-180 177 287.537)" fill="white"/>
<rect x="193" y="287.537" width="15" height="7" rx="1" transform="rotate(-180 193 287.537)" fill="white"/>
<rect x="211" y="327.537" width="7" height="7" rx="1" transform="rotate(-180 211 327.537)" fill="white"/>
<rect x="211" y="319.537" width="7" height="7" rx="1" transform="rotate(-180 211 319.537)" fill="white"/>
<rect x="211" y="311.537" width="7" height="7" rx="1" transform="rotate(-180 211 311.537)" fill="white"/>
<rect x="211" y="287.537" width="7" height="7" rx="1" transform="rotate(-180 211 287.537)" fill="white"/>
<rect x="211" y="295.537" width="7" height="7" rx="1" transform="rotate(-180 211 295.537)" fill="white"/>
<rect x="229" y="327.537" width="7" height="7" rx="1" transform="rotate(-180 229 327.537)" fill="white"/>
<rect x="169" y="327.537" width="7" height="7" rx="1" transform="rotate(-180 169 327.537)" fill="white"/>
<rect x="169" y="319.537" width="7" height="7" rx="1" transform="rotate(-180 169 319.537)" fill="white"/>
<rect x="169" y="311.537" width="7" height="7" rx="1" transform="rotate(-180 169 311.537)" fill="white"/>
<rect x="169" y="303.537" width="7" height="7" rx="1" transform="rotate(-180 169 303.537)" fill="white"/>
<rect x="169" y="295.537" width="7" height="15" rx="1" transform="rotate(-180 169 295.537)" fill="white"/>
<rect x="203" y="327.537" width="7" height="7" rx="1" transform="rotate(-180 203 327.537)" fill="white"/>
<rect x="203" y="319.537" width="7" height="7" rx="1" transform="rotate(-180 203 319.537)" fill="white"/>
<rect x="203" y="311.537" width="7" height="7" rx="1" transform="rotate(-180 203 311.537)" fill="white"/>
<rect x="203" y="287.537" width="7" height="7" rx="1" transform="rotate(-180 203 287.537)" fill="white"/>
<rect x="336" y="327.537" width="10" height="7" rx="1" transform="rotate(-180 336 327.537)" fill="white"/>
<rect x="336" y="311.537" width="10" height="7" rx="1" transform="rotate(-180 336 311.537)" fill="white"/>
<rect x="336" y="287.537" width="10" height="7" rx="1" transform="rotate(-180 336 287.537)" fill="white"/>
<rect x="253" y="287.537" width="10" height="7" rx="1" transform="rotate(-180 253 287.537)" fill="white"/>
<rect x="315" y="287.537" width="10" height="7" rx="1" transform="rotate(-180 315 287.537)" fill="white"/>
<rect x="232" y="287.537" width="10" height="7" rx="1" transform="rotate(-180 232 287.537)" fill="white"/>
<rect x="325" y="287.537" width="9" height="7" rx="1" transform="rotate(-180 325 287.537)" fill="white"/>
<rect x="242" y="287.537" width="9" height="7" rx="1" transform="rotate(-180 242 287.537)" fill="white"/>
<rect x="336" y="303.537" width="12" height="7" rx="1" transform="rotate(-180 336 303.537)" fill="white"/>
<rect x="336" y="295.537" width="15" height="7" rx="1" transform="rotate(-180 336 295.537)" fill="white"/>
<path d="M283.599 292.54C285.176 292.54 286.453 291.261 286.453 289.684V268.641C286.453 267.063 285.175 265.786 283.599 265.786C282.022 265.786 280.745 267.064 280.745 268.641V289.684C280.745 291.262 282.023 292.54 283.599 292.54Z" fill="#FFBF9D"/>
<path d="M415.077 131.138L453.072 189.352C466.028 209.203 454.968 235.877 431.772 240.722L303.894 262.989V268.979C303.894 275.375 298.712 280.56 292.32 280.56C285.928 280.56 280.746 275.375 280.746 268.979V254.073C280.746 249.825 283.371 246.019 287.34 244.511L400.6 201.492L370.01 179.696L415.077 131.138Z" fill="#FFBF9D"/>
<path d="M78.4967 131.138L40.5022 189.352C27.5465 209.203 38.6059 235.877 61.8015 240.722L189.68 262.989V268.979C189.68 275.375 194.862 280.56 201.254 280.56C207.646 280.56 212.828 275.375 212.828 268.979V254.073C212.828 249.825 210.203 246.019 206.234 244.511L92.974 201.492L123.564 179.696L78.4967 131.138Z" fill="#FFBF9D"/>
<path d="M209.975 292.54C208.398 292.54 207.121 291.261 207.121 289.684V268.641C207.121 267.063 208.399 265.786 209.975 265.786C211.551 265.786 212.829 267.064 212.829 268.641V289.684C212.829 291.262 211.551 292.54 209.975 292.54Z" fill="#FFBF9D"/>
<path d="M248.955 11.4827L232.727 13.2423C228.039 13.7507 224.646 17.9974 225.15 22.7276L225.86 29.3853C226.364 34.1155 230.573 37.5379 235.262 37.0295L251.49 35.2699C256.178 34.7615 259.571 30.5148 259.067 25.7846L258.357 19.1269C257.854 14.3967 253.644 10.9742 248.955 11.4827Z" fill="#19194A"/>
<path d="M241.729 14.5098L240.821 14.6076C240.674 14.6235 240.528 14.6414 240.382 14.6612C231.49 15.8749 226.005 25.1805 228.887 33.8382L236.169 53.4803C236.842 55.5429 238.198 57.3123 240.012 58.4945C241.826 59.6768 243.988 60.2009 246.139 59.9798C248.288 59.737 250.29 58.7637 251.812 57.2216C253.334 55.6796 254.284 53.6614 254.506 51.5023L257.462 30.7558C258.446 21.681 251.115 13.7579 242.169 14.4685C242.023 14.4802 241.876 14.4939 241.729 14.5098Z" fill="#FFBF9D"/>
<path d="M261.401 31.9475C260.632 31.4947 259.741 31.312 258.861 31.4271L258.86 31.4152L227.874 34.8322L227.875 34.844C226.996 34.9256 226.167 35.2981 225.512 35.9053C223.654 37.4716 223.12 40.8161 225.502 43.8689C226.361 45.035 227.493 45.9587 228.795 46.5536C230.096 47.1486 231.522 47.3954 232.942 47.271L256.464 44.6775C257.883 44.4943 259.232 43.9437 260.386 43.0777C261.54 42.2117 262.46 41.0587 263.059 39.7272C264.756 36.2245 263.541 33.073 261.401 31.9475Z" fill="#FFBF9D"/>
<path d="M233.514 9.56248L247.022 8.10984C249.686 7.82328 252.356 8.61617 254.445 10.3141C256.533 12.012 257.869 14.4758 258.157 17.1636L258.729 22.4835L225.519 26.055L224.905 20.3399C224.627 17.757 225.378 15.1704 226.993 13.1492C228.607 11.1281 230.953 9.83787 233.514 9.56248Z" fill="#19194A"/>
</g>
<defs>
<filter id="filter0_d_20_3909" x="0" y="0" width="506" height="761" filterUnits="userSpaceOnUse" color-interpolation-filters="sRGB">
<feFlood flood-opacity="0" result="BackgroundImageFix"/>
<feColorMatrix in="SourceAlpha" type="matrix" values="0 0 0 0 0 0 0 0 0 0 0 0 0 0 0 0 0 0 127 0" result="hardAlpha"/>
<feOffset dx="10" dy="4"/>
<feGaussianBlur stdDeviation="2"/>
<feComposite in2="hardAlpha" operator="out"/>
<feColorMatrix type="matrix" values="0 0 0 0 0 0 0 0 0 0 0 0 0 0 0 0 0 0 0.25 0"/>
<feBlend mode="normal" in2="BackgroundImageFix" result="effect1_dropShadow_20_3909"/>
<feBlend mode="normal" in="SourceGraphic" in2="effect1_dropShadow_20_3909" result="shape"/>
</filter>
</defs>
</svg>
