<svg width="529" height="658" viewBox="0 0 529 658" fill="none" xmlns="http://www.w3.org/2000/svg">
<circle cx="369" cy="474.013" r="160" fill="#100F39"/>
<path d="M70.4079 507.969L54.6636 522.263L73.2773 543.439L89.0216 529.145L70.4079 507.969Z" fill="#AE9AFF"/>
<path d="M54.6635 522.262L46.3185 522.806C43.5468 522.986 40.7675 522.606 38.1416 521.687C35.5157 520.768 33.0955 519.328 31.0213 517.451C28.4678 515.14 25.3975 513.498 22.0773 512.669C18.7572 511.839 15.2878 511.846 11.9711 512.69L0.155273 515.696L46.1715 568.046L73.2772 543.438L54.6635 522.262Z" fill="#FFBF9D"/>
<path d="M323.094 451.006L297.96 469.411L296.764 475.184C295.641 480.611 293.268 485.691 289.84 490.007C286.86 493.76 284.672 498.097 283.414 502.747C282.155 507.397 281.852 512.26 282.525 517.034L283.255 522.219L345.576 476.582L323.094 451.006Z" fill="#FFBF9D"/>
<path d="M97.2734 312.738L191.099 398.4L70.4082 507.969L105.876 548.319L243.989 447.182L267.014 468.419L310.445 436.615L290.071 413.436L369.859 355.009C377.954 349.081 384.554 341.29 389.118 332.274C393.683 323.257 396.083 313.27 396.122 303.13L396.296 258.013H117.909C89.5961 258.014 76.2116 293.509 97.2734 312.738ZM238.794 355.1L207.985 320.051L263.85 332.352L238.794 355.1Z" fill="#43447C"/>
<path d="M310.445 436.615L285.31 455.021L297.832 469.266L297.959 469.411L323.093 451.005L310.445 436.615Z" fill="#AE9AFF"/>
<path d="M214.027 157.41L192.234 224.289C189.313 233.254 188.543 242.781 189.987 252.099L206.464 358.473V381.542C206.464 383.146 206.78 384.734 207.394 386.216C208.008 387.698 208.907 389.044 210.041 390.178C211.175 391.312 212.522 392.212 214.003 392.826C215.485 393.439 217.073 393.755 218.677 393.755C220.281 393.755 221.869 393.439 223.351 392.826C224.833 392.212 226.179 391.312 227.313 390.178C228.447 389.044 229.347 387.698 229.961 386.216C230.574 384.734 230.89 383.146 230.89 381.542V353.045L234.155 235.664L261.069 182.289L214.027 157.41Z" fill="#FFBF9D"/>
<path d="M452.26 300.844L460.098 223.451L444.04 174.599L495.041 150.852L519.467 210.22L477.383 300.777L452.26 300.844Z" fill="#FFBF9D"/>
<path d="M495.04 150.851L470.938 81.7887C467.671 72.4292 461.574 64.3176 453.492 58.578C445.41 52.8383 435.742 49.755 425.829 49.7554L282.986 49.76C272.825 49.7604 262.928 53.0005 254.734 59.0097C246.54 65.0188 240.476 73.484 237.421 83.1755L214.027 157.41L261.07 182.288L273.735 161.481L289 287.755H436L441.551 163.743L444.039 174.599L495.04 150.851Z" fill="#AE9AFF"/>
<path d="M477.196 158.518H336.962V258.068H477.196V158.518Z" fill="#100F39"/>
<path d="M477.11 257.423H336.875V268.884H477.11V257.423Z" fill="black"/>
<path d="M411.212 201.09C410.23 200.413 409.118 199.954 407.949 199.742C408.481 202.642 407.862 205.638 406.228 208.078C404.593 210.518 402.074 212.205 399.22 212.772C399.888 213.862 400.788 214.787 401.854 215.48C402.92 216.172 404.125 216.614 405.381 216.774C406.637 216.933 407.913 216.806 409.114 216.402C410.316 215.998 411.413 215.326 412.326 214.437C413.239 213.548 413.944 212.463 414.391 211.262C414.837 210.061 415.014 208.773 414.907 207.494C414.8 206.215 414.413 204.976 413.774 203.868C413.135 202.76 412.259 201.811 411.212 201.09H411.212Z" fill="#43447C"/>
<path d="M447.869 288.333H450.274C453.014 288.333 455.642 289.421 457.58 291.359C459.517 293.297 460.606 295.925 460.606 298.665V302.165C460.606 303.176 460.205 304.144 459.49 304.859C458.776 305.573 457.807 305.974 456.797 305.974H441.346C440.335 305.974 439.367 305.573 438.652 304.859C437.938 304.144 437.537 303.176 437.537 302.165V298.665C437.537 295.925 438.625 293.297 440.563 291.359C442.501 289.421 445.128 288.333 447.869 288.333Z" fill="#FFBF9D"/>
<path fill-rule="evenodd" clip-rule="evenodd" d="M344.365 10.7473C344.365 14.262 341.565 17.1147 338.115 17.1147C334.665 17.1147 331.865 14.262 331.865 10.7473C331.865 7.23257 334.665 4.37988 338.115 4.37988C341.565 4.37988 344.365 7.23257 344.365 10.7473Z" fill="#43447C"/>
<path fill-rule="evenodd" clip-rule="evenodd" d="M338.116 17.0962C328.18 17.0962 320.122 25.3052 320.122 35.428V73.3797H331.961V53.9284H344.272V73.3797H356.122V35.428C356.122 25.3052 348.065 17.0962 338.116 17.0962Z" fill="#43447C"/>
<path fill-rule="evenodd" clip-rule="evenodd" d="M338.463 25.3799H337.782C337.676 25.3799 337.559 25.3799 337.453 25.3799C330.74 25.5851 325.928 32.2133 327.383 39.0467L331.221 54.6089C331.949 57.9894 334.813 60.3799 338.122 60.3799C341.432 60.3799 344.296 57.9894 345.012 54.6089L348.862 39.0467C350.317 32.2133 345.505 25.5851 338.791 25.3799C338.686 25.3799 338.568 25.3799 338.463 25.3799Z" fill="#FFBF9D"/>
<path fill-rule="evenodd" clip-rule="evenodd" d="M351.808 39.5301C351.087 39.0366 350.461 38.9042 349.93 38.9283H326.288C325.756 38.9042 325.142 39.0487 324.421 39.5301C322.897 40.5412 322.224 43.0087 323.783 45.5003C325.118 47.6188 327.174 48.6539 329.123 48.6539H347.082C349.043 48.666 351.099 47.6308 352.446 45.5003C354.006 43.0087 353.332 40.5412 351.808 39.5301Z" fill="#FFBF9D"/>
<path fill-rule="evenodd" clip-rule="evenodd" d="M338.695 24.3369H337.537C329.621 24.3369 323.206 30.8728 323.206 38.9254H353.027C353.027 30.8728 346.611 24.3369 338.695 24.3369Z" fill="#43447C"/>
</svg>
