<svg width="452" height="716" viewBox="0 0 452 716" fill="none" xmlns="http://www.w3.org/2000/svg">
<path d="M114.587 695.378L132.476 689.843C139.394 687.851 141.785 682.879 141.785 682.879L175.983 682.775L173.63 715.468H94.9545C99.6404 705.822 104.342 698.548 114.587 695.378Z" fill="#FFBF9D"/>
<path d="M179.657 649.973L175.983 682.776L141.712 682.88L145.199 650.213L179.657 649.973Z" fill="#3361FF"/>
<path d="M274.635 695.378L256.746 689.843C249.828 687.851 249.542 682.879 249.542 682.879L213.682 683.015L211.995 715.468H291.722C287.037 705.822 284.88 698.548 274.635 695.378Z" fill="#FFBF9D"/>
<path d="M214.993 650.861L213.683 683.014L249.541 682.879L251.348 655.663L214.993 650.861Z" fill="#3361FF"/>
<path d="M138 257.468H142.5H285L261.871 664.728H213.57L208.416 334.76L180.758 664.728H133.399L138 257.468Z" fill="#AE9AFF"/>
<path d="M374.708 154.618L369.646 137.41L338.773 149.557V163.729L374.708 154.618Z" fill="#FFBF9D"/>
<path d="M369.455 136.615L369.45 136.598L353.653 87.9798C350.052 76.8972 343.035 67.239 333.607 60.3896C324.18 53.5402 312.826 49.8511 301.173 49.8511H111.341C99.6876 49.8511 88.3338 53.5402 78.9063 60.3896C69.4789 67.239 62.4619 76.8972 58.8609 87.9798L43.0581 136.615L43.0805 136.632L102.814 180.031L110.985 165.877L139 287.851H286L301.527 173.112L309.7 180.031L369.455 136.615Z" fill="#3361FF"/>
<path d="M102.813 180.031L81.2006 226.779L169.273 232.489C172.542 232.689 175.663 233.919 178.19 236.002L191.653 247.101C193.33 248.483 194.697 250.202 195.667 252.147C196.636 254.091 197.186 256.218 197.281 258.389C197.376 260.56 197.013 262.727 196.217 264.748C195.42 266.77 194.208 268.602 192.658 270.125C189.925 272.811 186.294 274.389 182.466 274.556C178.638 274.723 174.883 273.467 171.927 271.03L156.663 258.447L52.1313 262.642C46.8411 262.854 41.5763 261.805 36.7719 259.58C31.9674 257.356 27.7612 254.02 24.5007 249.848C21.2402 245.677 19.019 240.79 18.0206 235.59C17.0222 230.391 17.2752 225.028 18.7589 219.946L43.0794 136.632L102.813 180.031Z" fill="#FFBF9D"/>
<path d="M400.094 257.029L259.282 297.851L258.5 288.351L409.028 244.933C409.072 247.65 408.222 250.306 406.607 252.492C404.993 254.678 402.704 256.272 400.094 257.029Z" fill="#100F39"/>
<path d="M259.281 297.851L149.121 297.818C146.562 297.817 144.108 296.8 142.299 294.99C140.489 293.181 139.473 290.726 139.473 288.167L259.281 288.203V297.851Z" fill="white"/>
<path d="M409.027 244.732L259.126 288.19L139.473 288.167L289.374 244.71L409.027 244.732Z" fill="#100F39"/>
<path d="M409.028 244.732L259.127 288.189L301.386 173.112C302.088 171.201 303.229 169.482 304.718 168.094C306.207 166.706 308.001 165.687 309.956 165.12L447.78 125.164C448.32 125.008 448.892 125.004 449.434 125.153C449.976 125.303 450.466 125.599 450.849 126.01C451.232 126.421 451.494 126.931 451.605 127.481C451.717 128.032 451.673 128.603 451.479 129.131L409.028 244.732Z" fill="#19194A"/>
<path d="M366.23 218.772C374.187 215.591 378.948 208.787 376.865 203.574C374.781 198.361 366.641 196.715 358.684 199.896C350.727 203.077 345.966 209.881 348.05 215.093C350.134 220.306 358.273 221.953 366.23 218.772Z" fill="#AE9AFF"/>
<path d="M411.394 248.586L407.957 249.584C405.751 250.224 403.42 250.306 401.174 249.823C398.928 249.34 396.836 248.307 395.088 246.817C393.34 245.326 391.989 243.425 391.156 241.284C390.324 239.142 390.036 236.828 390.319 234.548C390.636 231.99 391.66 229.572 393.274 227.563C394.889 225.554 397.031 224.035 399.46 223.175L416.913 216.998C417.509 216.787 418.15 216.738 418.772 216.855C419.393 216.973 419.972 217.253 420.45 217.668C420.928 218.082 421.287 218.616 421.491 219.214C421.696 219.813 421.738 220.455 421.613 221.075L417.399 242.053C417.091 243.587 416.368 245.007 415.309 246.159C414.251 247.311 412.897 248.15 411.394 248.586Z" fill="#FFBF9D"/>
<path d="M194.485 10.7043L176.936 13.6944C174.216 14.1578 171.7 15.5049 169.749 17.5425C167.797 19.5802 166.51 22.2038 166.072 25.0374L165.64 27.8331C165.439 29.1331 165.366 30.4501 165.423 31.7633L165.867 41.9717C165.974 44.4362 166.74 46.815 168.08 48.8396C168.63 49.6888 169.452 50.3056 170.4 50.5808C171.349 50.856 172.364 50.7719 173.264 50.3433C174.226 49.8665 175.063 49.1528 175.703 48.2643C176.342 47.3759 176.765 46.3397 176.933 45.2462L179.335 29.7075L196.879 26.718C197.89 26.5457 198.86 26.1681 199.734 25.6065C200.608 25.045 201.368 24.3106 201.972 23.4453C202.576 22.58 203.011 21.6007 203.252 20.5633C203.494 19.5259 203.537 18.4508 203.38 17.3993C203.062 15.2758 201.947 13.3775 200.278 12.1219C198.61 10.8664 196.526 10.3564 194.485 10.7043Z" fill="#AE9AFF"/>
<path d="M174.03 30.2453L176.533 46.8526C177.678 54.4508 188.228 54.3993 189.404 46.79L192.443 27.1308L174.03 30.2453Z" fill="#FFBF9D"/>
<path d="M172.856 28.113L173.069 32.1029C173.131 33.2807 173.417 34.4325 173.909 35.4927C174.402 36.5529 175.091 37.5006 175.939 38.2817C176.786 39.0629 177.774 39.6623 178.848 40.0455C179.921 40.4287 181.058 40.5884 182.193 40.5154C182.687 40.4836 183.163 40.3092 183.568 40.012C183.973 39.7147 184.29 39.3065 184.485 38.8333C184.679 38.3602 184.996 37.952 185.401 37.6547C185.806 37.3575 186.282 37.1832 186.776 37.1514L188.394 37.0473C188.888 37.0155 189.379 37.1276 189.813 37.3709C190.247 37.6141 190.605 37.9789 190.848 38.4239C191.091 38.8689 191.45 39.2336 191.884 39.4769C192.317 39.7202 192.809 39.8322 193.302 39.8005C194.438 39.7274 195.55 39.423 196.575 38.9048C197.601 38.3865 198.519 37.6645 199.277 36.78C200.036 35.8955 200.621 34.8658 200.997 33.7497C201.374 32.6336 201.535 31.4529 201.473 30.2751L201.26 26.2852L172.856 28.113Z" fill="white"/>
<path d="M193.189 37.6594C193.081 37.6668 192.972 37.6424 192.877 37.5888C192.781 37.5353 192.703 37.4548 192.65 37.3566C192.219 36.5621 191.582 35.9109 190.809 35.4776C190.037 35.0442 189.16 34.8462 188.281 34.9062L186.663 35.0103C185.784 35.0634 184.934 35.3724 184.213 35.9018C183.492 36.4313 182.927 37.1599 182.584 38.0041C182.542 38.1084 182.472 38.1985 182.383 38.264C182.294 38.3295 182.189 38.3678 182.08 38.3743C180.335 38.4845 178.623 37.8721 177.321 36.6715C176.019 35.4709 175.232 33.78 175.134 31.97L175.036 30.1216L199.311 28.5595L199.409 30.408C199.504 32.2183 198.902 33.9984 197.736 35.3579C196.57 36.7173 194.934 37.545 193.189 37.6594Z" fill="#AE9AFF"/>
<path d="M181.355 29.7145L176.615 35.9006C177.296 36.7595 178.169 37.4321 179.16 37.8603L185.611 29.4407L181.355 29.7145Z" fill="#3361FF"/>
<path d="M194.93 28.8415L190.088 35.1602C191.119 35.5233 191.994 36.2504 192.559 37.2153L199.185 28.5676L194.93 28.8415Z" fill="#3361FF"/>
</svg>
