<svg width="449" height="761" viewBox="0 0 449 761" fill="none" xmlns="http://www.w3.org/2000/svg">
<g filter="url(#filter0_d_23_37804)">
<path d="M58.2421 732.909L76.1308 727.374C83.0487 725.382 85.4402 720.41 85.4402 720.41L119.194 720.545L113.513 752.999H34.8379C37.1562 748.226 40.4296 743.981 44.4554 740.525C48.4812 737.07 53.1736 734.477 58.2421 732.909V732.909Z" fill="#FFBF9D"/>
<path d="M127.339 688.137L119.194 720.547L85.4346 720.411L92.0266 688.199L127.339 688.137Z" fill="#DDDDDD"/>
<path d="M276.751 732.909L258.863 727.374C251.945 725.382 251.659 720.41 251.659 720.41L215.799 720.545L214.111 752.999H293.84C289.153 743.353 286.996 736.079 276.751 732.909Z" fill="#FFBF9D"/>
<path d="M217.11 688.393L215.799 720.546L251.658 720.41L253.465 693.194L217.11 688.393Z" fill="#DDDDDD"/>
<path d="M139 295L168 295.017H286L263.989 702.259H215.686L207 372L136.299 702.259H88.9409L139 295Z" fill="#3361FF"/>
<path d="M285.221 56.5371L139.779 56.5378C131.889 56.5379 124.088 58.2029 116.886 61.424C109.684 64.6451 103.243 69.3498 97.9845 75.2304L53 125.536L101.315 179.567L126.063 168.446L139 294.537H286L298.937 168.446L323.685 179.567L372 125.536L327.016 75.2298C321.758 69.3491 315.317 64.6443 308.114 61.4231C300.912 58.202 293.111 56.537 285.221 56.5371Z" fill="#DDDDDD"/>
<path d="M204.795 239.332L167.804 158.186C165.733 153.643 160.379 151.646 155.846 153.724L47.4552 203.419C42.9219 205.497 40.9257 210.864 42.9964 215.407L79.9878 296.553C82.0585 301.095 87.4121 303.093 91.9454 301.014L200.336 251.32C204.869 249.241 206.866 243.874 204.795 239.332Z" fill="#100F39"/>
<path fill-rule="evenodd" clip-rule="evenodd" d="M147.52 215.351C148.591 215.552 149.605 215.984 150.493 216.617C151.381 217.25 152.121 218.068 152.662 219.016C151.79 219.538 150.822 219.877 149.816 220.013C148.81 220.149 147.787 220.079 146.809 219.808C145.812 219.631 144.877 219.201 144.093 218.56C143.309 217.918 142.702 217.086 142.329 216.143C143.092 215.658 143.948 215.338 144.842 215.201C145.735 215.065 146.647 215.116 147.52 215.351V215.351Z" fill="#43447C"/>
<path fill-rule="evenodd" clip-rule="evenodd" d="M135.5 229.905C138.754 227.779 140.795 221.722 139.214 218.318C137.777 215.223 132.733 213.001 129.029 213.461C128.627 213.49 128.215 213.521 127.797 213.553L127.797 213.553C124.916 213.772 121.722 214.016 119.152 213.552L119.156 213.557C116.037 212.771 112.686 212.997 109.6 214.431C102.197 217.869 99.1195 226.95 102.725 234.714C104.922 239.443 109.091 242.592 113.688 243.555C112.967 240.009 114.736 236.303 118.161 234.712C121.879 232.985 126.244 234.358 128.34 237.767C128.769 237.152 129.15 236.504 129.48 235.831C130.917 233.668 132.86 231.527 135.223 230.075C135.294 230.034 135.365 229.991 135.435 229.947L135.508 229.904L135.5 229.905Z" fill="#43447C"/>
<path d="M52.8154 125.723L101.186 179.694L64.2317 196.262L125.567 264.699H135.029C138.996 264.699 142.8 266.271 145.605 269.069C148.409 271.867 149.985 275.661 149.985 279.618V279.618C149.985 283.574 148.409 287.369 145.605 290.167C142.8 292.965 138.996 294.536 135.029 294.536H124.27C121.621 294.536 119.04 293.695 116.903 292.135L10.2115 214.233C7.40259 212.183 5.0551 209.568 3.31998 206.558C1.58485 203.548 0.500502 200.208 0.136649 196.755C-0.227203 193.302 0.137522 189.811 1.20733 186.507C2.27714 183.202 4.0284 180.158 6.34843 177.569L52.8154 125.723Z" fill="#FFBF9D"/>
<rect x="253.214" y="263.113" width="39" height="66" rx="5" transform="rotate(-20.3952 253.214 263.113)" fill="#FFBF9D"/>
<rect x="255.786" y="264.291" width="35" height="62" rx="3" transform="rotate(-20.3952 255.786 264.291)" fill="#3361FF"/>
<path d="M372.185 125.459L323.814 179.43L360.768 195.999L299.433 264.436H289.971C286.004 264.436 282.2 266.007 279.396 268.805C276.591 271.603 275.015 275.397 275.015 279.354C275.015 283.311 276.591 287.105 279.396 289.903C282.2 292.701 286.004 294.273 289.971 294.273H300.73C303.379 294.273 305.96 293.432 308.097 291.871L414.789 213.97C417.597 211.919 419.945 209.304 421.68 206.294C423.415 203.284 424.5 199.945 424.864 196.492C425.227 193.038 424.863 189.547 423.793 186.243C422.723 182.939 420.972 179.894 418.652 177.306L372.185 125.459Z" fill="#FFBF9D"/>
<path fill-rule="evenodd" clip-rule="evenodd" d="M218.243 10.3674C218.243 13.8821 215.443 16.7348 211.993 16.7348C208.543 16.7348 205.743 13.8821 205.743 10.3674C205.743 6.85269 208.543 4 211.993 4C215.443 4 218.243 6.85269 218.243 10.3674" fill="#3361FF"/>
<path fill-rule="evenodd" clip-rule="evenodd" d="M211.994 16.7168C202.058 16.7168 194 24.9258 194 35.0486V73.0003H205.839V53.549H218.15V73.0003H230V35.0486C230 24.9258 221.942 16.7168 211.994 16.7168" fill="#3361FF"/>
<path fill-rule="evenodd" clip-rule="evenodd" d="M212.34 25H211.66C211.554 25 211.437 25 211.331 25C204.617 25.2052 199.805 31.8334 201.261 38.6668L205.099 54.229C205.826 57.6095 208.69 60 212 60C215.31 60 218.174 57.6095 218.89 54.229L222.739 38.6668C224.195 31.8334 219.383 25.2052 212.669 25C212.563 25 212.446 25 212.34 25" fill="#FFBF9D"/>
<path fill-rule="evenodd" clip-rule="evenodd" d="M225.686 39.1512C224.965 38.6577 224.339 38.5253 223.807 38.5494H200.166C199.634 38.5253 199.02 38.6698 198.299 39.1512C196.775 40.1623 196.101 42.6298 197.661 45.1214C198.996 47.2399 201.052 48.275 203.001 48.275H220.96C222.921 48.287 224.977 47.2519 226.324 45.1214C227.884 42.6298 227.21 40.1623 225.686 39.1512" fill="#FFBF9D"/>
<path fill-rule="evenodd" clip-rule="evenodd" d="M212.573 23.957H211.415C203.499 23.957 197.083 30.4929 197.083 38.5455H226.904C226.904 30.4929 220.489 23.957 212.573 23.957" fill="#3361FF"/>
</g>
<defs>
<filter id="filter0_d_23_37804" x="0" y="0" width="449" height="761" filterUnits="userSpaceOnUse" color-interpolation-filters="sRGB">
<feFlood flood-opacity="0" result="BackgroundImageFix"/>
<feColorMatrix in="SourceAlpha" type="matrix" values="0 0 0 0 0 0 0 0 0 0 0 0 0 0 0 0 0 0 127 0" result="hardAlpha"/>
<feOffset dx="20" dy="4"/>
<feGaussianBlur stdDeviation="2"/>
<feComposite in2="hardAlpha" operator="out"/>
<feColorMatrix type="matrix" values="0 0 0 0 0 0 0 0 0 0 0 0 0 0 0 0 0 0 0.25 0"/>
<feBlend mode="normal" in2="BackgroundImageFix" result="effect1_dropShadow_23_37804"/>
<feBlend mode="normal" in="SourceGraphic" in2="effect1_dropShadow_23_37804" result="shape"/>
</filter>
</defs>
</svg>
